<svg xmlns="http://www.w3.org/2000/svg" width="24mm" height="24mm" viewBox="0 0 24 24"><g transform="translate(-637.17 28.783)" stroke-linecap="round" stroke-linejoin="round"><ellipse cx="649.032" cy="-16.749" rx="11.042" ry="10.988" fill="#f2c4be" stroke="#a3d9b8" stroke-width=".029"/><path d="M652.474-23.695l-1.6.043c-2.28.06-2.87.301-3.482 1.451-.286.536-.313.667-.35 1.632l-.044 1.049h-1.411v2.74h1.434v3.431c0 1.888.025 3.458.06 3.49.033.035.703.06 1.482.06h1.419v-6.98H652.239l.116-1.216c.06-.668.115-1.284.115-1.369-.002-.139-.122-.154-1.206-.154h-1.206l.033-.698c.052-1.011.124-1.07 1.387-1.07h.99v-1.201z" fill="#fff" stroke="#87c4de" stroke-width=".044"/></g></svg>