<svg xmlns="http://www.w3.org/2000/svg" width="210mm" height="297mm" viewBox="0 0 210 297"><defs><clipPath id="a" clipPathUnits="userSpaceOnUse"><path d="M461.12 540.68h317.52V376.52H461.12z"/></clipPath><radialGradient id="b" spreadMethod="pad" gradientTransform="matrix(56.53625 -21.82096 -24.10784 -62.46613 496.804 420.95)" gradientUnits="userSpaceOnUse" r="1" cy="0" cx="0" fy="0" fx="0"><stop offset="0" stop-color="#fff"/><stop offset=".813" stop-opacity="0" stop-color="#fff"/><stop offset="1" stop-opacity="0" stop-color="#fff"/></radialGradient><radialGradient id="c" spreadMethod="pad" gradientTransform="scale(-108.3207 108.3207) rotate(-78.491 -.244 5.09)" gradientUnits="userSpaceOnUse" r="1" cy="0" cx="0" fy="0" fx="0"><stop offset="0" stop-color="#fff"/><stop offset=".585" stop-opacity="0" stop-color="#fff"/><stop offset="1" stop-opacity="0" stop-color="#fff"/></radialGradient><radialGradient id="d" spreadMethod="pad" gradientTransform="scale(-108.31925 108.31925) rotate(-78.491 -.244 5.091)" gradientUnits="userSpaceOnUse" r="1" cy="0" cx="0" fy="0" fx="0"><stop offset="0" stop-color="#fff"/><stop offset=".585" stop-opacity="0" stop-color="#fff"/><stop offset="1" stop-opacity="0" stop-color="#fff"/></radialGradient><radialGradient id="e" spreadMethod="pad" gradientTransform="matrix(56.53625 -21.82096 -24.10784 -62.46613 496.804 420.95)" gradientUnits="userSpaceOnUse" r="1" cy="0" cx="0" fy="0" fx="0"><stop offset="0" stop-color="#fff"/><stop offset=".813" stop-opacity="0" stop-color="#fff"/><stop offset="1" stop-opacity="0" stop-color="#fff"/></radialGradient><radialGradient id="f" spreadMethod="pad" gradientTransform="scale(-108.3207 108.3207) rotate(-78.491 -.244 5.09)" gradientUnits="userSpaceOnUse" r="1" cy="0" cx="0" fy="0" fx="0"><stop offset="0" stop-color="#fff"/><stop offset=".585" stop-opacity="0" stop-color="#fff"/><stop offset="1" stop-opacity="0" stop-color="#fff"/></radialGradient><radialGradient id="g" spreadMethod="pad" gradientTransform="scale(-108.31925 108.31925) rotate(-78.491 -.244 5.091)" gradientUnits="userSpaceOnUse" r="1" cy="0" cx="0" fy="0" fx="0"><stop offset="0" stop-color="#fff"/><stop offset=".585" stop-opacity="0" stop-color="#fff"/><stop offset="1" stop-opacity="0" stop-color="#fff"/></radialGradient></defs><ellipse cy="183.413" cx="201.76" rx="10.816" ry="11.172" fill="#ddafe9"/><path d="M200.483 188.848c-.297-.002-.358-.007-.615-.014a8.35 8.35 0 0 1-.893-.063 3.306 3.306 0 0 1-1.296-.455 2.915 2.915 0 0 1-.795-.764 3.157 3.157 0 0 1-.49-1.251c-.05-.294-.073-.615-.092-1.322-.01-.299-.01-2.833 0-3.132.012-.46.03-.808.05-1.004.056-.559.207-1.042.451-1.443a2.91 2.91 0 0 1 .696-.764c.066-.051.216-.15.291-.193a3.29 3.29 0 0 1 .864-.328c.355-.082.697-.112 1.537-.133.307-.01 2.816-.01 3.13 0 .31.01.67.021.831.032.473.032.85.111 1.216.256.371.147.658.336.945.622.293.292.495.607.642 1 .145.386.214.768.24 1.309.027.573.03.756.03 2.212 0 1.454-.002 1.645-.03 2.212-.024.525-.09.892-.224 1.267-.158.44-.387.79-.724 1.107-.219.205-.45.363-.71.484-.408.19-.841.292-1.385.329-.148.01-.52.024-.797.032-.215.007-2.45.01-2.872.002zm2.453-.98c.414-.001.55-.006.86-.02.198-.011.299-.015.397-.025.57-.051 1-.208 1.31-.476.21-.183.363-.38.466-.605.146-.316.218-.654.241-1.142.027-.55.03-.725.03-2.19 0-1.465-.001-1.629-.03-2.189-.024-.487-.094-.825-.24-1.142a1.611 1.611 0 0 0-.356-.5 1.641 1.641 0 0 0-.595-.396c-.292-.119-.614-.18-1.056-.2-.568-.028-.736-.031-2.21-.031s-1.615.002-2.193.03c-.44.022-.749.08-1.043.196-.247.098-.417.21-.606.398-.157.155-.247.279-.337.458-.161.324-.239.678-.264 1.197-.027.553-.03.754-.03 2.189 0 1.306.002 1.501.02 1.908.018.46.03.615.072.839.06.325.18.628.336.845.095.132.241.283.378.39.282.218.662.356 1.133.41.174.022.36.03.888.049.277.01 2.114.014 2.829.007zm-1.32-1.666c-.106-.01-.16-.012-.22-.021a2.806 2.806 0 0 1-2.434-2.54 2.784 2.784 0 0 1 .13-1.095 2.803 2.803 0 0 1 2.67-1.924c.213 0 .327.01.522.046.159.03.395.099.549.162.515.215.951.57 1.26 1.03a2.783 2.783 0 0 1-.838 3.916 2.81 2.81 0 0 1-1.235.417 6.438 6.438 0 0 1-.403.01zm.35-.987a1.821 1.821 0 0 0 1.587-1.474c.021-.122.026-.185.026-.328 0-.144-.007-.207-.027-.328a1.818 1.818 0 0 0-.988-1.3 1.831 1.831 0 0 0-1.947.216 1.817 1.817 0 0 0-.67 1.235 2.98 2.98 0 0 0 0 .353 1.818 1.818 0 0 0 2.018 1.625zm2.628-4.058c-.01-.001-.034-.007-.055-.012a.654.654 0 0 1-.48-.424.517.517 0 0 1-.032-.213c0-.1.007-.131.03-.208a.658.658 0 0 1 .757-.43c.13.03.234.088.327.18.077.076.13.16.16.256a.652.652 0 0 1-.607.852h-.1z"/></svg>