<svg xmlns="http://www.w3.org/2000/svg" width="210mm" height="297mm" viewBox="0 0 210 297"><defs><clipPath id="a" clipPathUnits="userSpaceOnUse"><path d="M461.12 540.68h317.52V376.52H461.12z"/></clipPath><radialGradient id="b" spreadMethod="pad" gradientTransform="matrix(56.53625 -21.82096 -24.10784 -62.46613 496.804 420.95)" gradientUnits="userSpaceOnUse" r="1" cy="0" cx="0" fy="0" fx="0"><stop offset="0" stop-color="#fff"/><stop offset=".813" stop-opacity="0" stop-color="#fff"/><stop offset="1" stop-opacity="0" stop-color="#fff"/></radialGradient><radialGradient id="c" spreadMethod="pad" gradientTransform="scale(-108.3207 108.3207) rotate(-78.491 -.244 5.09)" gradientUnits="userSpaceOnUse" r="1" cy="0" cx="0" fy="0" fx="0"><stop offset="0" stop-color="#fff"/><stop offset=".585" stop-opacity="0" stop-color="#fff"/><stop offset="1" stop-opacity="0" stop-color="#fff"/></radialGradient><radialGradient id="d" spreadMethod="pad" gradientTransform="scale(-108.31925 108.31925) rotate(-78.491 -.244 5.091)" gradientUnits="userSpaceOnUse" r="1" cy="0" cx="0" fy="0" fx="0"><stop offset="0" stop-color="#fff"/><stop offset=".585" stop-opacity="0" stop-color="#fff"/><stop offset="1" stop-opacity="0" stop-color="#fff"/></radialGradient><radialGradient id="e" spreadMethod="pad" gradientTransform="matrix(56.53625 -21.82096 -24.10784 -62.46613 496.804 420.95)" gradientUnits="userSpaceOnUse" r="1" cy="0" cx="0" fy="0" fx="0"><stop offset="0" stop-color="#fff"/><stop offset=".813" stop-opacity="0" stop-color="#fff"/><stop offset="1" stop-opacity="0" stop-color="#fff"/></radialGradient><radialGradient id="f" spreadMethod="pad" gradientTransform="scale(-108.3207 108.3207) rotate(-78.491 -.244 5.09)" gradientUnits="userSpaceOnUse" r="1" cy="0" cx="0" fy="0" fx="0"><stop offset="0" stop-color="#fff"/><stop offset=".585" stop-opacity="0" stop-color="#fff"/><stop offset="1" stop-opacity="0" stop-color="#fff"/></radialGradient><radialGradient id="g" spreadMethod="pad" gradientTransform="scale(-108.31925 108.31925) rotate(-78.491 -.244 5.091)" gradientUnits="userSpaceOnUse" r="1" cy="0" cx="0" fy="0" fx="0"><stop offset="0" stop-color="#fff"/><stop offset=".585" stop-opacity="0" stop-color="#fff"/><stop offset="1" stop-opacity="0" stop-color="#fff"/></radialGradient></defs><ellipse cy="201.611" cx="82.478" rx="10.816" ry="11.172" fill="#ffd470"/><path d="M82.19 207.816c-2.312-3.157-3.853-5.946-4.16-7.527-.129-.668-.032-1.676.235-2.446.543-1.57 1.746-2.531 3.465-2.77.357-.05 1.235-.043 1.591.012 1.206.187 2.155.737 2.789 1.615.324.45.616 1.116.744 1.698.138.626.17 1.409.075 1.893-.25 1.294-1.256 3.268-2.956 5.806-.617.92-1.45 2.085-1.493 2.085-.012 0-.143-.165-.29-.367zm.933-6.583a2.309 2.309 0 0 0 1.01-.582 2.4 2.4 0 0 0 .667-1.087c.062-.201.07-.269.071-.625.002-.34-.006-.431-.057-.616a2.345 2.345 0 0 0-.665-1.122 2.409 2.409 0 0 0-4.029 1.249 2.44 2.44 0 0 0 .204 1.53 2.48 2.48 0 0 0 1.652 1.287c.267.059.891.04 1.147-.034z"/></svg>