<svg xmlns="http://www.w3.org/2000/svg" width="41mm" height="32mm" viewBox="0 0 41 32"><g fill-rule="evenodd"><path d="M32.012 19.294c1.577-3.078 2.595.729.823 2.16-.64.094-1.324-.22-1.827-.644-1.015-.856-1.296-2.167 1.004-1.516zM27.008 25.305c-1.793-3.498-2.95.83-.936 2.456.727.106 1.504-.25 2.077-.732 1.153-.974 1.473-2.463-1.141-1.724zM20.452 27.428c1.41-2.751 2.32.652.735 1.932-.571.083-1.183-.196-1.633-.576-.907-.766-1.158-1.937.898-1.356zM13.066 28.93c-1.816-3.544-2.988.84-.947 2.488.736.108 1.523-.253 2.103-.742 1.17-.986 1.493-2.495-1.156-1.746zM18.196 19.828c-1.793-3.498-2.95.83-.936 2.456.727.106 1.504-.25 2.077-.732 1.153-.974 1.473-2.463-1.141-1.724zM24.147 21.478c.908-1.772 1.494.42.473 1.244-.368.054-.761-.127-1.051-.371-.585-.493-.746-1.248.578-.873zM12.134 22.882c1.291-2.519 2.124.597.674 1.768-.523.077-1.083-.18-1.495-.527-.83-.7-1.06-1.773.821-1.24z" fill="#e0b340"/><path d="M13.987 10.77c-2.629-7.668 4.78-9.639 7.843-9.72 3.24-.086 11.104.228 10.97 8.539 6.378-2.581 9.43 5.68 5.244 6.74-1.351-.088-36.113.919-35.572.525-2.524-1.155-1.048-4.424 5.352-3.283.371.067-.016-.823.393-1.393.904-1.264 3.064-2.638 5.77-1.407z" fill="#f5c6c0" stroke="#f5c6c0" stroke-width=".4550544"/></g></svg>