<svg xmlns="http://www.w3.org/2000/svg" viewBox="0 0 496.474 496.474"><path d="M489.544 269.628c-.729-14.739-6.206-28.858-15.205-40.572-20.294-26.422-24.25-47.399-24.25-47.399-15.934-41.751-30.099-69.57-40.51-87.226-10.954-18.541-29.898-31.03-51.262-33.776-42.961-5.554-177.23-5.554-220.191 0a70.043 70.043 0 0 0-51.247 33.776c-10.411 17.656-24.56 45.475-40.51 87.226 0 0-3.956 20.977-24.25 47.399-8.983 11.714-14.476 25.833-15.189 40.572-1.536 31.977 7.727 39.005 16.012 111.368a11.253 11.253 0 0 0 11.202 9.976h428.203c5.741 0 10.55-4.298 11.202-9.976 2.327-20.294 9.232-61.456 9.232-61.456 6.049-20.464 7.368-37.143 6.763-49.912z" fill="#e95353"/><path d="M441.074 179.982c-12.567-31.449-25.383-58.911-38.136-80.803-9.666-16.555-26.717-28.113-45.583-30.642-43.055-5.71-175.476-5.663-218.221 0-18.866 2.529-35.918 14.088-45.584 30.642-12.924 22.171-25.91 50.005-38.291 80.803a2460.111 2460.111 0 0 0 385.815 0z" fill="#168de2"/><path d="M422.844 216.349c-4.903 1.536-9.464 3.693-13.281 5.834-6.951 3.879-14.088 7.494-21.535 10.318-12.35 4.686-14.445 11.683-14.445 11.683-.372.481-.729.962-1.071 1.458-9.371 13.917 2.932 32.442 19.549 30.084 24.033-3.398 43.83-10.364 53.884-14.398 5.756-2.312 10.255-7.121 11.729-13.157.14-.574.264-1.148.372-1.707 3.694-19.921-15.855-36.15-35.202-30.115z" fill="#fff"/><path d="M448.522 327.857h-26.733c-4.018 0-6.035 4.856-3.196 7.711l26.733 26.733c2.839 2.839 7.711.822 7.711-3.196v-26.733a4.51 4.51 0 0 0-4.515-4.515z" fill="#ffe21f"/><path d="M473.547 380.965a11.282 11.282 0 0 1-11.217 10.007h-51.433v29.851c0 10.566 8.564 19.146 19.146 19.146h32.303c10.566 0 19.146-8.564 19.146-19.146v-93.448c-2.126 12.94-6.253 38.804-7.945 53.59z" fill="#454545"/><path d="M496.107 159.083c-1.552-6.951-8.083-11.667-15.205-11.667h-12.909c-8.27 0-14.972 6.703-14.972 14.972v9.2h-6.842l3.925 9.325h15.05c7.789 0 15.5-1.676 22.575-4.918a14.963 14.963 0 0 0 8.378-16.912z" fill="#ed6262"/><circle cx="431.315" cy="240.46" r="18.82" fill="#ffbd49"/><circle cx="393.458" cy="255.308" r="13.824" fill="#ffdb6f"/><path fill="#6f6f6f" d="M357.634 255.324l-21.613 37.639H160.452l-21.613-37.639z"/><path d="M123.945 245.642a18.547 18.547 0 0 0-1.071-1.458s-2.095-6.997-14.445-11.683c-7.447-2.824-14.569-6.439-21.535-10.318-3.832-2.141-8.378-4.298-13.281-5.834-19.332-6.051-38.896 10.193-35.219 30.115.109.574.233 1.133.357 1.707 1.474 6.035 5.973 10.845 11.729 13.157 10.054 4.034 29.851 11 53.9 14.398 16.632 2.358 28.936-16.167 19.565-30.084z" fill="#fff"/><path d="M74.684 327.857H47.951a4.51 4.51 0 0 0-4.515 4.515v26.733c0 4.018 4.872 6.035 7.711 3.196l26.733-26.733c2.839-2.839.822-7.711-3.196-7.711z" fill="#ffe21f"/><path d="M426.226 374.511c-27.834-48.159-59.842-46.654-59.842-46.654H130.073s-31.992-1.505-59.842 46.654H22.119l.59 6.206a11.284 11.284 0 0 0 11.248 10.256h428.56a11.285 11.285 0 0 0 11.249-10.255l.59-6.206-48.13-.001z" fill="#777"/><path d="M34.143 390.988a11.294 11.294 0 0 1-11.217-10.007c-1.691-14.786-5.834-40.665-7.944-53.589v93.448c0 10.566 8.564 19.146 19.146 19.146H66.43c10.566 0 19.146-8.564 19.146-19.146v-29.851H34.143z" fill="#454545"/><path d="M43.436 171.588v-9.2c0-8.27-6.703-14.972-14.957-14.972H15.571c-7.121 0-13.653 4.717-15.205 11.667a14.96 14.96 0 0 0 8.378 16.896 54.259 54.259 0 0 0 22.575 4.918h15.05l3.925-9.325h-6.858v.016z" fill="#ed6262"/><circle cx="65.142" cy="240.46" r="18.82" fill="#ffbd49"/><circle cx="103.03" cy="255.308" r="13.824" fill="#ffdb6f"/><g fill="#6f6f6f"><path d="M348.294 341.029H148.179a5.664 5.664 0 0 0-5.663 5.663 5.655 5.655 0 0 0 5.663 5.663h200.099a5.664 5.664 0 0 0 5.663-5.663c.016-3.134-2.529-5.663-5.647-5.663zM348.294 363.635H148.179a5.664 5.664 0 0 0-5.663 5.663 5.655 5.655 0 0 0 5.663 5.663h200.099a5.664 5.664 0 0 0 5.663-5.663c.016-3.134-2.529-5.663-5.647-5.663z"/></g><path d="M420.098 132.009v1.939c0 7.804-6.408 14.057-14.367 13.731-7.339-.465-12.955-7.028-12.955-14.522v-27.834c0-6.563-5.461-11.559-12.024-11.388h-.31-.155c-6.563-.155-12.024 4.841-12.024 11.388v25.181c0 7.804-6.718 14.057-14.522 13.576-7.339-.31-12.955-7.028-12.955-14.367v-21.892c0-6.563-5.461-12.024-12.179-12.024h-.931c-6.253 0-11.404 5.151-11.404 11.404v28.47c0 7.804-6.563 14.041-14.522 13.731-7.339-.465-12.8-7.028-12.8-14.522V96.712c0-6.082-5.306-11.233-11.559-10.768h-.931c-6.408 0-11.543 5.151-11.543 11.404v39.021c0 7.494-6.082 13.731-13.731 13.731-7.339 0-13.421-5.927-13.576-13.265v-32.752c0-7.494-5.616-14.041-12.955-14.522-7.959-.31-14.367 5.927-14.367 13.731l-.155 30.255c0 7.804-6.392 14.041-14.367 13.731-7.199-.45-12.66-6.78-12.878-13.948V97.829c0-7.37-5.539-13.964-12.909-14.398-7.897-.341-14.414 5.88-14.414 13.7v37.19c-.217 7.618-6.609 13.684-14.445 13.374-7.339-.465-12.8-7.028-12.8-14.522v-27.85c0-6.563-5.616-11.559-12.179-11.388h-.31c-6.718-.155-12.179 4.841-12.179 11.388v25.181c0 7.804-6.563 14.057-14.367 13.576-6.796-.264-11.854-5.942-12.722-12.521-7.215 14.941-14.367 31.123-21.318 48.407a2456.232 2456.232 0 0 0 385.815 0c-6.921-17.33-13.934-33.311-20.962-47.957z" fill="#3aa2eb"/></svg>