<svg xmlns="http://www.w3.org/2000/svg" viewBox="0 0 492 492"><path d="M198.608 246.104L382.664 62.04c5.068-5.056 7.856-11.816 7.856-19.024 0-7.212-2.788-13.968-7.856-19.032l-16.128-16.12C361.476 2.792 354.712 0 347.504 0s-13.964 2.792-19.028 7.864L109.328 227.008c-5.084 5.08-7.868 11.868-7.848 19.084-.02 7.248 2.76 14.028 7.848 19.112l218.944 218.932c5.064 5.072 11.82 7.864 19.032 7.864 7.208 0 13.964-2.792 19.032-7.864l16.124-16.12c10.492-10.492 10.492-27.572 0-38.06L198.608 246.104z"/><path d="M341.596 490.956c-2.198-.45-5.908-2.054-8.246-3.564-6.605-4.266-226.708-225.134-228.778-229.573-1.028-2.206-1.849-6.431-2.06-10.615-.647-12.762-9.412-3.066 116.901-129.33C307.943 29.38 333.667 4.164 336.887 2.717c5.633-2.53 15.442-2.529 21.073.002 2.714 1.22 8.276 5.986 16.28 13.952 9.993 9.946 12.48 12.96 13.972 16.943 2.343 6.253 2.3 12.542-.127 19.172-1.856 5.065-6.15 9.516-95.962 99.45l-94.02 94.149 93.588 93.673c63.521 63.579 94.198 94.902 95.487 97.499 2.885 5.807 3.401 12.811 1.416 19.213-1.499 4.836-2.87 6.593-13.944 17.885-12.965 13.22-16.678 15.698-24.936 16.647-2.268.261-5.92.106-8.118-.345z" fill="none"/><path d="M340.965 490.705c-2.293-.643-5.591-2.059-7.33-3.146-1.739-1.088-53.916-52.812-115.95-114.943C105.494 260.25 104.888 259.623 103.281 254.312c-2.078-6.872-1.538-13.568 1.613-19.972 2.011-4.086 21.543-24.015 114.918-117.249C298.14 38.881 333.419 4.251 335.97 3.068c5.278-2.444 14.74-2.82 20.767-.822 4.13 1.368 6.696 3.394 16.585 13.098 13.994 13.732 16.4 17.757 16.46 27.544.075 11.897 5.198 6.182-98.213 109.56l-93.474 93.444 93.76 93.919c104.988 105.164 98.236 97.526 97.55 110.337-.24 4.468-1.024 7.828-2.524 10.796-2.96 5.859-23.12 25.745-28.52 28.13-5.467 2.416-12.309 3.057-17.397 1.63z" fill="none"/><path d="M340.965 490.705c-2.293-.643-5.591-2.059-7.33-3.146-1.739-1.088-53.916-52.812-115.95-114.943C105.494 260.25 104.888 259.623 103.281 254.312c-2.078-6.872-1.538-13.568 1.613-19.972 2.011-4.086 21.543-24.015 114.918-117.249C298.14 38.881 333.419 4.251 335.97 3.068c5.278-2.444 14.74-2.82 20.767-.822 4.13 1.368 6.696 3.394 16.585 13.098 13.994 13.732 16.4 17.757 16.46 27.544.075 11.897 5.198 6.182-98.213 109.56l-93.474 93.444 93.76 93.919c104.988 105.164 98.236 97.526 97.55 110.337-.24 4.468-1.024 7.828-2.524 10.796-2.96 5.859-23.12 25.745-28.52 28.13-5.467 2.416-12.309 3.057-17.397 1.63z" fill="#ffcb00" fill-opacity=".995"/></svg>