<svg xmlns="http://www.w3.org/2000/svg" viewBox="0 0 512.002 512.002"><path d="M445.841 201.423c0 152.012-171.608 292.797-171.608 292.797-10.027 8.226-26.437 8.226-36.465 0 0 0-171.608-140.785-171.608-292.797 0-104.846 84.995-189.84 189.841-189.84s189.84 84.995 189.84 189.84z" fill="#ffcb00"/><path d="M256.001 296.934c-52.665 0-95.51-42.846-95.51-95.51s42.846-95.51 95.51-95.51 95.51 42.846 95.51 95.51-42.847 95.51-95.51 95.51z" fill="#fff"/><g fill="#11113f"><path d="M256.001 0C144.935 0 54.576 90.359 54.576 201.424c0 36.373 9.386 74.987 27.896 114.767 14.616 31.409 34.94 63.649 60.411 95.826 43.178 54.547 85.749 89.691 87.54 91.16 7.171 5.883 16.375 8.825 25.579 8.825s18.407-2.942 25.579-8.825c1.791-1.47 44.361-36.613 87.539-91.16 25.47-32.176 45.795-64.416 60.411-95.826 18.51-39.78 27.896-78.392 27.896-114.767C457.424 90.359 367.065 0 256.001 0zm95.246 397.268c-41.647 52.697-83.942 87.653-84.361 87.997-5.799 4.758-15.972 4.757-21.768.002-.422-.346-42.716-35.302-84.363-87.999-37.869-47.918-83.012-120.791-83.012-195.844C77.742 103.132 157.708 23.166 256 23.166s178.258 79.966 178.258 178.258c0 75.052-45.142 147.926-83.011 195.844z"/><path d="M256.001 94.331c-59.051 0-107.093 48.042-107.093 107.094 0 59.051 48.042 107.093 107.093 107.093s107.093-48.042 107.093-107.093c-.001-59.052-48.043-107.094-107.093-107.094zm0 191.02c-46.278 0-83.927-37.649-83.927-83.927s37.649-83.928 83.927-83.928 83.927 37.65 83.927 83.928-37.651 83.927-83.927 83.927z"/></g></svg>