<svg xmlns="http://www.w3.org/2000/svg" viewBox="0 0 492.004 492.004"><path d="M382.678 226.804L163.73 7.86C158.666 2.792 151.906 0 144.698 0s-13.968 2.792-19.032 7.86l-16.124 16.12c-10.492 10.504-10.492 27.576 0 38.064L293.398 245.9l-184.06 184.06c-5.064 5.068-7.86 11.824-7.86 19.028 0 7.212 2.796 13.968 7.86 19.04l16.124 16.116c5.068 5.068 11.824 7.86 19.032 7.86s13.968-2.792 19.032-7.86L382.678 265c5.076-5.084 7.864-11.872 7.848-19.088.016-7.244-2.772-14.028-7.848-19.108z"/><path d="M137.47 490.617c-5.945-1.808-10.688-5.48-21.59-16.716-13.88-14.304-16.426-21.305-12.304-33.818 1.548-4.698 9.752-13.21 96.146-99.733l94.454-94.596-94.498-94.596C107.705 59.089 105.136 56.41 103.532 50.9c-2.055-7.058-2.055-8.75.007-15.693 1.421-4.786 3.305-7.27 13.29-17.53C129.83 4.321 135.46.822 143.98.805c11.97-.024 3.69-7.562 127.576 116.119 77.357 77.228 114.566 115.075 115.965 117.954 2.793 5.745 2.75 16.013-.092 22.342-1.643 3.657-26.861 29.433-114.379 116.909-76.252 76.216-113.668 112.913-116.625 114.383-5.205 2.59-14.11 3.578-18.955 2.105z" fill="#ffcb00" fill-opacity=".995"/></svg>