<svg xmlns="http://www.w3.org/2000/svg" viewBox="0 0 512 512"><circle cx="256" cy="256" r="256" fill="#addc51"/><path d="M156.487 155.369c-46.11 46.11-53.793 116.381-22.341 170.653l-19.68 71.05 113.38 113.38A258.94 258.94 0 0 0 256 512c124.183 0 227.7-88.425 251.055-205.744L356.169 155.369c-55.136-55.135-144.513-55.17-199.682 0z" fill="#94c435"/><path d="M356.169 155.369c-55.136-55.136-144.513-55.17-199.682 0-46.11 46.11-53.793 116.381-22.341 170.653l-19.68 71.05 71.05-19.68c54.572 31.627 124.772 23.539 170.653-22.341 55.127-55.127 55.178-144.504 0-199.682z" fill="#5a915a"/><path d="M333.725 305.616c-.053-4.215-3.993-7.646-8.823-8.238a117.45 117.45 0 0 1-33.314-9.114c-3.745-1.641-8.061-.988-10.66 1.754a216.334 216.334 0 0 1-7.251 7.415c-25.691-12.922-46.646-33.878-59.568-59.568a219.16 219.16 0 0 1 7.415-7.252c2.74-2.599 3.395-6.915 1.754-10.66a117.493 117.493 0 0 1-9.114-33.314c-.593-4.827-4.019-8.77-8.231-8.823h-10.481c-15.288-.865-28.512 20.028-21.893 44.091 15.459 56.285 59.793 100.618 116.077 116.077 24.061 6.619 44.957-6.611 44.091-21.897-.002-3.491-.002-6.981-.002-10.471z" fill="#fff"/></svg>