<svg version="1.0" xmlns="http://www.w3.org/2000/svg" width="266.667" height="266.667" viewBox="0 0 200 200"><path d="M84.5 61.6C75.3 67.7 69 75.8 69 81.6c0 6.7 7 12.3 17.9 14.4 8.4 1.6 12.1 1.3 12.1-.8 0-4.1-2.6-5.9-10-6.6-8.3-.8-11.8-3.2-12.6-8.6-.7-4.6 2.4-9.2 9.4-14.1 3.8-2.7 4.8-3.8 3.7-4.3-1.1-.4-1.4-.2-.9.6.4.7.3.8-.4.4-1.7-1-1.5-1.5 1.1-2.6 1.3-.5 1.6-.9.7-.9-.9-.1-3.3 1.1-5.5 2.5zm-5.9 56.7c-1.1.8-1.7 2.3-1.4 3.8.2 1.9 1 2.5 3.5 2.7 2.8.3 3.3 0 3.9-2.4.5-2 .2-3.1-1.1-4.1-2.3-1.6-2.7-1.6-4.9 0zm-51.3 11.2c-2.3 1-3.3 2.1-3.3 3.6 0 1.6.4 1.9 1.8 1.3 4.2-1.8 9-1.6 11.1.5 3.1 3.1 2.8 6.1-.6 6.1-8.8 0-14.8 4.6-14.8 11.2 0 5.8 3.7 8.8 11 8.8 3 0 7.3-.7 9.5-1.6l4-1.6v-10.3c0-5.6-.5-11.6-1.1-13.4-2-5.6-10.3-7.8-17.6-4.6zm11.5 20.7c-.3 4.7-.6 5.3-2.7 5.6-5.9.9-9.4-2.5-7.1-6.8 1.2-2.3 4.3-3.8 7.8-3.9 2.2-.1 2.3.2 2 5.1zm13.5-21l-3.3 1.1v20.8c0 11.5.2 20.9.5 20.9.4 0 1.9-.7 3.5-1.5 2.6-1.4 3-2.1 3-5.8v-4.2l5.5.3c4.9.4 5.8.1 8.4-2.6 7.3-7.2 6.2-24.5-1.9-28.7-3.3-1.7-10.9-1.8-15.7-.3zm11.3 4.6c2.2 1.4 3.4 5.2 3.4 10.4 0 8.4-3.2 12.7-8.3 11.4L56 155v-22h3.3c1.7 0 3.7.4 4.3.8zm28.9-4.3c-2.2.8-4.1 1.5-4.2 1.5-.2 0-.3 6.8-.3 15.1v15l3.3-.3 3.2-.3.5-13.5.5-13.5 2.8-.3c5.2-.6 5.7.8 5.7 15v12.9l3.3-.3 3.2-.3.3-13.2.3-13.3 2.6-.6c5.1-1.3 5.8.1 6.3 14.2l.5 12.9h6l.3-12.7c.4-17.7-1.8-21.3-11.6-19.3-4 .8-6 .8-13.7 0-3.2-.3-6.5 0-9 1zm44.3 0c-6.1 3.4-8.6 15.8-4.9 24.2 2.3 5 6.3 7.3 12.3 7.3 6.7 0 8.8-.9 8.8-3.6 0-2.3-.3-2.4-4-1.8-6 1-8.9-.2-10.6-4.1-.8-1.9-1.4-3.9-1.4-4.5 0-.6 3.5-1 9.1-1h9.1l-.7-4.7c-.4-2.6-1.3-6-2.1-7.5-2.7-5.2-10.1-7.2-15.6-4.3zm9 4.7c.5.7 1.3 2.8 1.7 4.5l.7 3.3h-5.6c-5.9 0-6.2-.3-4.5-4.7 1.6-4.2 5.5-5.8 7.7-3.1zm18.1-3.9c-6.7 4.4-8.9 14.7-5 23.4 2.3 4.9 6.2 7.3 12 7.3 5.4 0 7.1-.8 7.1-3.5 0-2.1-.5-2.4-4-2.3-4.9 0-7.6-2.1-9.1-7.3-1.4-4.4-.7-7.6 2.2-11.2 1.7-2.2 2.9-2.7 6.5-2.7 4 0 4.4-.2 4.4-2.4 0-4.2-8.6-5-14.1-1.3zm-83.7.2l-3.3 1.4.3 14.3.3 14.3h7l.3-15.8c.1-8.6-.1-15.7-.5-15.7-.5.1-2.3.7-4.1 1.5z" fill="#fff"/></svg>