<svg xmlns="http://www.w3.org/2000/svg" width="4096" height="4096"><defs><clipPath clipPathUnits="userSpaceOnUse" id="f"><path d="M0 0h768v1024H0z"/></clipPath><clipPath clipPathUnits="userSpaceOnUse" id="e"><path d="M0 0h768v1024H0z"/></clipPath><clipPath clipPathUnits="userSpaceOnUse" id="d"><path d="M0 0h768v1024H0z"/></clipPath><clipPath clipPathUnits="userSpaceOnUse" id="c"><path d="M0 0h768v1024H0z"/></clipPath><clipPath clipPathUnits="userSpaceOnUse" id="b"><path d="M0 0h768v1024H0z"/></clipPath><clipPath clipPathUnits="userSpaceOnUse" id="a"><path d="M0 0h768v1024H0z"/></clipPath></defs><g fill="#fff"><g transform="matrix(26.41503 0 0 -26.41503 -8826.563 26522.591)" clip-path="url(#a)"><path d="M385.287 925.156a9.342 9.342 0 011.937 5.693c0 5.185-4.22 9.404-9.404 9.404h-17.19v-31.771h18.703c5.186 0 9.404 4.218 9.404 9.403a9.385 9.385 0 01-3.45 7.27m-16.854 9.253h7.844a3.563 3.563 0 003.56-3.56 3.563 3.563 0 00-3.56-3.56h-7.844zm8.548-20.083h-8.548v7.12h8.548a3.564 3.564 0 003.559-3.56 3.563 3.563 0 00-3.559-3.56m37.142 31.595c0-1.154-.441-2.1-1.324-2.84-.884-.739-2.018-1.11-3.4-1.11-1.3 0-2.396.343-3.29 1.03-.891.681-1.422 1.613-1.593 2.794h3.502c.265-.682.733-1.028 1.418-1.028.42 0 .764.111 1.037.333.269.223.405.515.405.875 0 .35-.132.628-.396.84-.265.21-.633.315-1.102.315h-1.187v2.451h1.098c.445 0 .8.1 1.064.298.264.198.396.46.396.784 0 .361-.122.65-.37.866-.245.217-.58.325-1.001.325-.42 0-.765-.144-1.036-.434-.162-.173-.28-.404-.363-.682h-3.342c.193 1.212.713 2.16 1.56 2.838.847.68 1.9 1.018 3.164 1.018 1.334 0 2.432-.36 3.29-1.082.859-.72 1.29-1.64 1.29-2.758 0-1.022-.42-1.804-1.261-2.344.96-.542 1.44-1.37 1.44-2.489"/></g><path d="M701.482 1524.973v-102.78H385.347v1366.819h316.135v-103.125H487.81V1524.973zM1436 2685.877v103.15h316.134V1422.183H1436v102.78h213.645v1160.915z"/><g clip-path="url(#b)" transform="matrix(26.41503 0 0 -26.41503 -8826.563 26522.591)"><path d="M429.264 912.841c.556-.059 1.002-.273 1.34-.64.338-.369.507-.839.507-1.413 0-.683-.234-1.238-.705-1.666-.47-.429-1.107-.64-1.913-.64h-4.065v8.594h3.823c.805 0 1.43-.2 1.885-.603.455-.402.68-.937.68-1.604 0-.53-.15-.98-.45-1.347-.3-.368-.665-.585-1.102-.654zm-4.182.245h3.31c.539 0 .974.161 1.309.487.334.326.499.75.499 1.27 0 .504-.177.91-.532 1.212-.355.304-.845.456-1.47.456h-3.116zm3.36-4.042c.607 0 1.096.165 1.463.495.369.33.552.758.552 1.29 0 .528-.187.947-.557 1.257-.372.306-.863.46-1.47.46h-3.348v-3.502z"/></g><path d="M2785.575 2525.028l-27.815-61.996h-129.407l-28.132 61.996h-18.306l103.336-227.037h15.268l103.335 227.037zm-92.479-205.35l-57.664 127.769h115.249zm305.942 205.35h-154.185V2297.99h17.302v211.478h136.883z"/><g clip-path="url(#c)" transform="matrix(26.41503 0 0 -26.41503 -8826.563 26522.591)"><path d="M454.44 909.532a3.257 3.257 0 011.29 1.605l.628-.155a3.787 3.787 0 00-1.516-1.932c-.718-.474-1.555-.712-2.514-.712-1.239 0-2.286.431-3.142 1.291-.856.859-1.284 1.909-1.284 3.15 0 1.238.428 2.289 1.284 3.149.856.859 1.903 1.288 3.142 1.288.96 0 1.796-.235 2.514-.705a3.765 3.765 0 001.516-1.898l-.617-.193a3.156 3.156 0 01-1.28 1.603c-.61.394-1.319.59-2.133.59-1.06 0-1.957-.37-2.686-1.109-.733-.74-1.098-1.649-1.098-2.725 0-1.079.365-1.989 1.098-2.728.73-.739 1.626-1.11 2.686-1.11.804 0 1.508.197 2.111.591m10.295-1.051l-1.053 2.347h-4.899l-1.066-2.347h-.693l3.913 8.595h.577l3.913-8.595zm-3.502 7.773l-2.182-4.836h4.363zm-1.16 2.65a.697.697 0 01-.15-.468h-.474c0 .367.095.647.283.84a.948.948 0 00.706.288c.256 0 .537-.114.84-.339.303-.228.55-.342.737-.342.162 0 .288.062.38.181.09.12.133.282.133.487h.488c0-.376-.093-.66-.276-.853a.925.925 0 00-.699-.289c-.257 0-.537.112-.84.334-.304.223-.546.334-.725.334a.498.498 0 01-.403-.174m13.283-2.975c.847-.86 1.27-1.911 1.27-3.15 0-1.25-.423-2.3-1.27-3.156-.846-.855-1.887-1.284-3.119-1.284-1.239 0-2.283.429-3.129 1.284-.847.856-1.27 1.907-1.27 3.157 0 1.238.425 2.289 1.278 3.149.85.859 1.891 1.289 3.121 1.289 1.232 0 2.273-.43 3.12-1.29m-.457-5.883c.723.738 1.085 1.648 1.085 2.735 0 1.076-.362 1.986-1.085 2.725-.722.739-1.61 1.109-2.663 1.109-1.06 0-1.95-.37-2.674-1.11-.724-.738-1.084-1.648-1.084-2.724 0-1.087.36-1.997 1.084-2.735.723-.734 1.614-1.102 2.674-1.102 1.053 0 1.941.368 2.663 1.102m-43.429 14.398a1.924 1.924 0 001.238-.635c.329-.364.495-.831.495-1.405 0-.701-.234-1.265-.7-1.693-.467-.427-1.122-.641-1.97-.641h-4.118v8.595h3.952c.794 0 1.42-.206 1.874-.617.452-.41.679-.957.679-1.641 0-.522-.143-.96-.43-1.316-.286-.354-.627-.557-1.02-.608zm-4.041.372h2.925c.478 0 .865.14 1.16.423.297.283.444.655.444 1.117 0 .434-.152.783-.456 1.044-.303.261-.712.391-1.224.391h-2.85zm3.015-3.875c.53 0 .952.142 1.263.425.312.28.469.656.469 1.126 0 .454-.16.818-.482 1.09-.32.275-.733.413-1.238.413h-3.027v-3.055zm11.333 6.594c.86-.863 1.292-1.92 1.292-3.17 0-1.247-.432-2.303-1.292-3.167-.858-.864-1.91-1.296-3.148-1.296-1.25 0-2.304.432-3.164 1.296-.86.864-1.29 1.92-1.29 3.168 0 1.249.43 2.306 1.29 3.169.86.864 1.915 1.296 3.164 1.296 1.239 0 2.29-.432 3.148-1.296m-.724-5.664c.659.67.989 1.504.989 2.495 0 .985-.33 1.816-.99 2.495-.657.68-1.465 1.02-2.423 1.02-.967 0-1.78-.34-2.438-1.02-.66-.68-.988-1.51-.988-2.495 0-.991.329-1.824.988-2.495s1.47-1.006 2.438-1.006c.958 0 1.766.335 2.424 1.006"/></g><path d="M3019.393 2218.988h-156.879v-227.037h26.785v202.656h130.094z"/><g clip-path="url(#d)" transform="matrix(26.41503 0 0 -26.41503 -8826.563 26522.591)"><path d="M454.864 928.188a2.74 2.74 0 001.084-1.72l-1.014-.23a1.946 1.946 0 01-.744 1.244c-.402.308-.9.462-1.488.462-.581 0-1.052-.144-1.411-.43a1.367 1.367 0 01-.54-1.123c0-.367.11-.652.328-.852.219-.202.54-.345.969-.431l1.874-.423c1.445-.308 2.168-1.053 2.168-2.232 0-.778-.292-1.398-.873-1.86-.582-.462-1.356-.693-2.322-.693-.933 0-1.721.23-2.367.686-.646.458-1.02 1.085-1.124 1.88l1.066.218c.094-.6.367-1.062.82-1.392.455-.33 1.018-.494 1.694-.494.65 0 1.16.147 1.534.443.372.295.558.683.558 1.16 0 .394-.11.69-.328.885-.218.197-.574.35-1.071.464l-1.937.422c-1.378.309-2.066 1.039-2.066 2.194 0 .735.28 1.329.84 1.783.56.453 1.298.68 2.214.68.846 0 1.559-.214 2.136-.641"/></g><path d="M3445.383 2218.988l-25.411-57.584h-119.634l-25.464 57.584h-28.74l101.645-227.037h24.725l101.671 227.037zm-85.083-193.833l-49.502 112.158h98.66z"/><g clip-path="url(#e)" transform="matrix(26.41503 0 0 -26.41503 -8826.563 26522.591)"><path d="M429.695 936.03c.445-.051.826-.256 1.143-.615.316-.36.475-.826.475-1.398 0-.72-.233-1.292-.698-1.72-.467-.427-1.141-.642-2.021-.642h-4.183v8.597h4.092c.778 0 1.399-.212 1.86-.635.462-.424.692-.987.692-1.688 0-.505-.138-.923-.416-1.257-.277-.334-.592-.53-.944-.59zm-3.911.5h2.566c.409 0 .74.123.994.367.25.243.377.562.377.956 0 .359-.126.652-.377.878-.253.227-.581.34-.982.34h-2.578zm2.669-3.694c.452 0 .807.12 1.064.359.256.239.385.557.385.949 0 .386-.13.695-.391.93-.262.236-.601.353-1.022.353h-2.705v-2.591zm10.222-1.181l-3.065 3.425h-1.244v-3.425h-1.373v8.596h4.04c.88 0 1.593-.238 2.137-.712s.816-1.1.816-1.879c0-.736-.247-1.337-.74-1.803-.491-.466-1.148-.72-1.968-.763l3.104-3.439zm-1.641 4.67c.47 0 .85.122 1.142.366.29.244.436.567.436.97 0 .4-.145.725-.436.973-.292.25-.671.373-1.142.373h-2.668v-2.682z"/></g><path d="M3014.19 1912.891l-22.374-52.91h-110.442l-22.373 52.91h-39.306l99.981-227.064h33.864l99.955 227.064zm-77.555-182.686l-41.05 96.6h82.046z"/><g clip-path="url(#f)" transform="matrix(26.41503 0 0 -26.41503 -8826.563 26522.591)"><path d="M455.974 939.776c.596-.436.97-1.026 1.124-1.77l-1.373-.282a1.706 1.706 0 01-.655 1.097c-.359.277-.795.417-1.308.417-.505 0-.91-.122-1.22-.366a1.15 1.15 0 01-.46-.943c0-.3.087-.535.262-.705.174-.172.452-.295.827-.373l1.862-.398c1.47-.325 2.205-1.107 2.205-2.348 0-.803-.302-1.442-.905-1.917-.603-.474-1.399-.71-2.39-.71-.95 0-1.755.222-2.415.672-.658.45-1.038 1.075-1.14 1.88l1.463.306c.102-.538.35-.947.743-1.224.394-.278.885-.417 1.476-.417.564 0 1.007.121 1.327.365.322.243.482.567.482.97 0 .324-.093.572-.277.743-.184.171-.494.304-.928.398l-1.874.384c-1.446.334-2.168 1.112-2.168 2.335 0 .762.288 1.375.865 1.842.577.466 1.342.698 2.291.698.863 0 1.592-.217 2.186-.654"/></g><path d="M3297.488 1685.804h36.267v227.063h-36.267zm251.74 227.087h-160.286v-227.064h36.294v194.177h123.992z"/></g></svg>