<svg xmlns="http://www.w3.org/2000/svg" width="4096" height="4096"><defs><clipPath clipPathUnits="userSpaceOnUse" id="a"><path d="M377.481 632.026h136.535v43.059H377.481z"/></clipPath><clipPath clipPathUnits="userSpaceOnUse" id="b"><path d="M377.481 632.026h136.535v43.059H377.481z"/></clipPath></defs><path d="M8794.28 2147.437H6532.817l43.112-118.833h2261.434z" fill="#fff"/><g clip-path="url(#a)" transform="matrix(29.58985 0 0 -29.58985 -5504.676 21291.56)" fill="#fff"><path d="M417.637 656.35h-9.356v18.735h8.59c4.119 0 6.598-1.277 6.598-4.328 0-2.498-1.921-4.008-3.656-4.298v-.147c2.175-.232 4.403-1.625 4.403-4.762 0-3.283-2.41-5.2-6.58-5.2m-2.451 15.889h-1.548v-5.606c3.109 0 4.432 1.336 4.432 3.02 0 1.511-1.278 2.585-2.884 2.585m.098-7.726h-1.646v-5.315h1.776c1.736 0 2.962.754 2.962 2.613 0 1.832-1.41 2.703-3.092 2.703m55.321-8.163h-9.357v18.735h8.59c4.118 0 6.598-1.277 6.598-4.328 0-2.498-1.92-4.008-3.656-4.298v-.147c2.175-.232 4.403-1.625 4.403-4.762 0-3.283-2.41-5.2-6.578-5.2m-2.452 15.889h-1.549v-5.606c3.108 0 4.432 1.336 4.432 3.02 0 1.511-1.279 2.585-2.883 2.585m.098-7.726h-1.647v-5.315h1.775c1.736 0 2.963.754 2.963 2.613 0 1.832-1.408 2.703-3.09 2.703m-31.914-8.163l-4.391 7.167h-.186v-7.167h-5.356v18.735h7.481c5.31 0 7.785-1.91 7.785-5.366 0-2.817-1.779-4.53-4.209-5.393l5.057-7.976zm-3.028 15.889h-1.549v-6.34c2.823 0 4.431 1.11 4.431 3.319 0 1.83-1.432 3.02-2.883 3.02"/><path d="M454.144 656.35l-1.116 3.398h-6.23l-1.092-3.398h-4.084l6.814 18.735h5.457l6.202-18.735zm-4.17 13.564l-2.21-6.942h4.22zm39.544-13.564l-1.115 3.398h-6.23l-1.092-3.398h-4.085l6.816 18.735h5.455l6.203-18.735zm-4.168 13.564l-2.209-6.942h4.218zm25.092-13.564l-10.203 10.262V656.35h-3.624v18.735h3.205l10.474-10.638v10.638h3.722V656.35zm-127.596 7.843v-7.843h-5.355v18.735H391.3l-1.226-3.37h-7.228v-4.21h6.689v-3.312zm22.609-7.843h-12.584v18.735h13.81l-1.226-3.37h-7.228v-4.21h6.69v-3.312h-6.69v-4.474h8.453zm-24.598-15.498h-2.54V638.3h2.517v-.767h-2.518v-3.446h-.836v7.544h3.697zm1.894-4.201c0-1.03.595-1.946 1.797-1.946.458 0 .962.183 1.282.389l.252-.572c-.389-.321-1.076-.55-1.705-.55-1.695 0-2.519 1.385-2.519 2.931 0 1.568.893 2.735 2.198 2.735 1.397 0 2.164-1.11 2.164-2.793v-.194zm1.316 2.278c-.801 0-1.304-.71-1.304-1.568h2.552c0 .755-.423 1.568-1.248 1.568m5.903-4.957c-1.511 0-2.782.882-2.782 2.748 0 1.682 1.248 2.919 2.794 2.919.389 0 .663-.035.88-.092v2.645h.837v-7.831c-.332-.194-.962-.39-1.73-.39m.894 4.798c-.218.08-.412.137-.836.137-1.064 0-1.992-.836-1.992-2.13 0-1.224.676-2.094 2.084-2.094.275 0 .572.057.744.137zm2.983-2.118c0-1.03.596-1.946 1.797-1.946.458 0 .962.183 1.282.389l.252-.572c-.39-.321-1.076-.55-1.705-.55-1.695 0-2.52 1.385-2.52 2.931 0 1.568.894 2.735 2.199 2.735 1.397 0 2.164-1.11 2.164-2.793v-.194zm1.316 2.278c-.801 0-1.305-.71-1.305-1.568h2.553c0 .755-.423 1.568-1.248 1.568m5.948-.263a1.374 1.374 0 01-.515.092c-.32 0-.847-.275-1.19-.653v-4.018h-.836v5.415h.687l.115-.62c.744.677 1.156.757 1.545.757.24 0 .447-.092.55-.16zm4.136-4.58l-.217.527c-.332-.32-.859-.64-1.66-.64-.882 0-1.66.628-1.66 1.66 0 1.063.744 1.716 2.175 1.762l1.1.034v.252c0 .927-.482 1.236-1.169 1.236-.698 0-1.133-.286-1.419-.504l-.344.607c.653.47 1.225.618 1.912.618 1.03 0 1.855-.446 1.855-1.83v-1.65c0-1.534.045-1.9.114-2.072zm-.263 2.6l-1.076-.035c-.973-.035-1.362-.367-1.362-.962 0-.55.343-.996 1.053-.996s1.133.355 1.385.618zm4.815-2.703l-.137-.435c.25-.023.767-.103.767-.687 0-.549-.607-.835-1.111-.835-.343 0-.561.068-.698.148l.172.458a.948.948 0 01.515-.137c.24 0 .458.137.458.343 0 .218-.206.298-.481.31l-.366.011.263.836c-1.42.171-2.152 1.385-2.152 2.736 0 1.5.87 2.907 2.678 2.907.493 0 1.008-.137 1.374-.343v-.79c-.343.218-.812.4-1.408.4-1.133 0-1.797-.903-1.797-2.117 0-1.202.664-2.095 1.774-2.095.596 0 1.019.195 1.35.401l.264-.596a3.355 3.355 0 00-1.465-.515m5.639.103l-.217.527c-.332-.32-.86-.64-1.66-.64-.882 0-1.66.628-1.66 1.66 0 1.063.744 1.716 2.175 1.762l1.099.034v.252c0 .927-.481 1.236-1.168 1.236-.698 0-1.133-.286-1.42-.504l-.343.607c.653.47 1.225.618 1.912.618 1.03 0 1.854-.446 1.854-1.83v-1.65c0-1.534.046-1.9.115-2.072zm-.446 6.285c-.172 0-.344.034-.63.16l-.378.172c-.148.07-.31.138-.446.138-.15 0-.252-.115-.252-.287v-.114h-.584v.274c0 .458.343.79.79.79.16 0 .332-.034.618-.16l.378-.172c.149-.069.309-.137.446-.137.149 0 .252.115.252.286v.115h.584v-.275a.767.767 0 00-.778-.79m.183-3.686l-1.076-.034c-.973-.035-1.363-.367-1.363-.962 0-.55.344-.996 1.053-.996.71 0 1.134.355 1.386.618zm6.179-2.038c-.424-.435-1.02-.675-1.717-.675-.676 0-1.26.228-1.683.664-.492.503-.756 1.271-.756 2.163 0 .893.275 1.637.756 2.141a2.31 2.31 0 001.694.698c.698 0 1.282-.25 1.717-.698.48-.504.756-1.248.756-2.14 0-.893-.275-1.649-.767-2.153m-1.706 4.281c-1.02 0-1.603-.823-1.603-2.106 0-1.282.607-2.129 1.615-2.129 1.007 0 1.614.847 1.614 2.13 0 1.282-.584 2.105-1.626 2.105m8.636-4.842h-1.89v7.544h2.107c1.374 0 1.969-.96 1.969-1.82 0-.778-.366-1.397-1.041-1.67v-.013c.709-.114 1.488-.824 1.488-1.832 0-1.018-.607-2.209-2.633-2.209m-.092 6.766h-.961v-2.519h.973c.663 0 1.362.447 1.362 1.317 0 .755-.435 1.202-1.374 1.202m.229-3.286h-1.19v-2.7h1.12c1.066 0 1.65.605 1.65 1.407 0 .721-.618 1.293-1.58 1.293m6.4 1.1a1.374 1.374 0 01-.515.092c-.321 0-.847-.275-1.191-.653v-4.018h-.836v5.415h.688l.114-.62c.744.677 1.156.757 1.546.757.24 0 .446-.092.549-.16zm4.23-4.58l-.218.527c-.333-.32-.859-.64-1.66-.64-.882 0-1.66.628-1.66 1.66 0 1.063.744 1.716 2.175 1.762l1.098.034v.252c0 .927-.48 1.236-1.167 1.236-.698 0-1.134-.286-1.42-.504l-.343.607c.652.47 1.225.618 1.912.618 1.03 0 1.854-.446 1.854-1.83v-1.65c0-1.534.046-1.9.114-2.072zm-.265 2.6l-1.076-.035c-.972-.035-1.362-.367-1.362-.962 0-.55.343-.996 1.053-.996s1.134.355 1.385.618zm3.49-2.714c-.778 0-1.248.206-1.602.412l.32.653c.252-.16.72-.39 1.316-.39.665 0 1.145.298 1.145.802 0 1.328-2.461.858-2.461 2.759 0 .778.56 1.43 1.797 1.43.573 0 1.008-.125 1.363-.286v-.732c-.38.16-.768.32-1.33.32-.548 0-1.006-.194-1.006-.686 0-1.214 2.507-.905 2.507-2.68 0-1.132-.94-1.602-2.05-1.602m3.88 6.663a.587.587 0 00-.584.584c0 .32.264.584.584.584.32 0 .584-.264.584-.584a.587.587 0 00-.584-.584m-.412-1.133h.835v-5.415h-.835zm3.579-5.53c-.664 0-.95.424-.95.996v7.224h.835v-6.846c0-.516.126-.618.447-.618.057 0 .148 0 .286.034l.103-.607a1.48 1.48 0 00-.72-.183m2.326 2.679c0-1.03.595-1.946 1.797-1.946.458 0 .962.183 1.282.389l.252-.572c-.39-.321-1.076-.55-1.706-.55-1.694 0-2.518 1.385-2.518 2.931 0 1.568.893 2.735 2.198 2.735 1.397 0 2.164-1.11 2.164-2.793v-.194zm1.316 2.278c-.801 0-1.305-.71-1.305-1.568h2.553c0 .755-.424 1.568-1.248 1.568m3.999 1.706a.586.586 0 00-.584.584c0 .32.263.584.584.584.32 0 .583-.264.583-.584a.586.586 0 00-.583-.584m-.412-1.133h.836v-5.415h-.836zm5.129-.836a1.374 1.374 0 01-.515.092c-.321 0-.847-.275-1.191-.653v-4.018h-.836v5.415h.687l.115-.62c.744.677 1.156.757 1.545.757.24 0 .447-.092.55-.16zm4.157-4.58l-.218.527c-.332-.32-.86-.64-1.66-.64-.881 0-1.66.628-1.66 1.66 0 1.063.745 1.716 2.176 1.762l1.098.034v.252c0 .927-.481 1.236-1.167 1.236-.7 0-1.134-.286-1.42-.504l-.343.607c.652.47 1.225.618 1.91.618 1.032 0 1.856-.446 1.856-1.83v-1.65c0-1.534.046-1.9.114-2.072zm-.264 2.6l-1.076-.035c-.973-.035-1.362-.367-1.362-.962 0-.55.343-.996 1.053-.996s1.134.355 1.385.618zm7.153-2.714c-1.511 0-2.781.882-2.781 2.748 0 1.682 1.247 2.919 2.792 2.919.39 0 .665-.035.882-.092v2.645h.836v-7.831c-.332-.194-.962-.39-1.73-.39m.894 4.798c-.217.08-.412.137-.835.137-1.065 0-1.992-.836-1.992-2.13 0-1.224.675-2.094 2.083-2.094.274 0 .572.057.744.137zm2.931-2.118c0-1.03.596-1.946 1.797-1.946.46 0 .962.183 1.283.389l.251-.572c-.389-.321-1.075-.55-1.705-.55-1.694 0-2.519 1.385-2.519 2.931 0 1.568.893 2.735 2.198 2.735 1.397 0 2.164-1.11 2.164-2.793v-.194zm1.317 2.278c-.802 0-1.306-.71-1.306-1.568h2.554c0 .755-.424 1.568-1.248 1.568m8.13-4.843h-1.89v7.544h2.106c1.374 0 1.97-.96 1.97-1.82 0-.778-.366-1.397-1.041-1.67v-.013c.709-.114 1.488-.824 1.488-1.832 0-1.018-.607-2.209-2.633-2.209m-.092 6.766h-.961v-2.519h.973c.663 0 1.362.447 1.362 1.317 0 .755-.435 1.202-1.374 1.202m.229-3.286h-1.19v-2.7h1.12c1.066 0 1.65.605 1.65 1.407 0 .721-.618 1.293-1.58 1.293m7.006-3.48l-.217.527c-.332-.32-.859-.64-1.66-.64-.882 0-1.66.628-1.66 1.66 0 1.063.743 1.716 2.175 1.762l1.1.034v.252c0 .927-.482 1.236-1.169 1.236-.698 0-1.133-.286-1.419-.504l-.344.607c.653.47 1.225.618 1.912.618 1.03 0 1.855-.446 1.855-1.83v-1.65c0-1.534.045-1.9.114-2.072zm-.263 2.6l-1.077-.035c-.972-.035-1.362-.367-1.362-.962 0-.55.344-.996 1.053-.996.71 0 1.134.355 1.386.618zm5.757-2.6v3.331c0 .676-.114 1.432-.939 1.432-.663 0-1.259-.47-1.683-.847v-3.916h-.835v5.415h.687l.114-.64c.641.468 1.18.777 1.935.777.78 0 1.557-.56 1.557-1.91v-3.642zm4.351-.114c-1.66 0-2.518 1.294-2.518 2.759 0 1.5.87 2.908 2.678 2.908.492 0 1.008-.138 1.373-.344v-.79a2.59 2.59 0 01-1.407.4c-1.134 0-1.797-.903-1.797-2.128 0-1.202.663-2.084 1.774-2.084.595 0 1.02.195 1.351.4l.263-.594a3.217 3.217 0 00-1.717-.527m6.262.675c-.424-.435-1.02-.675-1.717-.675-.676 0-1.26.228-1.683.664-.492.503-.756 1.271-.756 2.163 0 .893.275 1.637.756 2.141a2.31 2.31 0 001.694.698c.698 0 1.282-.25 1.717-.698.48-.504.756-1.248.756-2.14 0-.893-.275-1.649-.767-2.153m-1.706 4.281c-1.018 0-1.603-.823-1.603-2.106 0-1.282.607-2.129 1.615-2.129 1.007 0 1.614.847 1.614 2.13 0 1.282-.584 2.105-1.626 2.105m4.401-4.956c-.778 0-1.248.206-1.602.412l.32.653c.252-.16.721-.39 1.317-.39.664 0 1.145.298 1.145.802 0 1.328-2.462.858-2.462 2.759 0 .778.561 1.43 1.797 1.43.573 0 1.008-.125 1.362-.286v-.732c-.377.16-.766.32-1.328.32-.549 0-1.007-.194-1.007-.686 0-1.214 2.507-.905 2.507-2.68 0-1.132-.938-1.602-2.049-1.602"/></g><path d="M2920.148 2374.915H1141.962l33.899-93.438h1778.163z" fill="#fff"/><g clip-path="url(#b)" transform="matrix(26.4869 0 0 -26.4869 -9538.789 19361.683)" fill="#fff"><path d="M412.756 649.555h-8.219v16.457h7.546c3.618 0 5.796-1.121 5.796-3.802 0-2.194-1.688-3.52-3.212-3.775v-.13c1.91-.203 3.868-1.427 3.868-4.182 0-2.884-2.116-4.568-5.78-4.568m-2.153 13.957h-1.36v-4.924c2.731 0 3.893 1.173 3.893 2.654 0 1.327-1.123 2.27-2.533 2.27m.086-6.786h-1.446v-4.67h1.56c1.525 0 2.602.662 2.602 2.295 0 1.61-1.238 2.375-2.716 2.375m48.595-7.171h-8.22v16.457h7.546c3.618 0 5.796-1.121 5.796-3.802 0-2.194-1.686-3.52-3.211-3.775v-.13c1.91-.203 3.867-1.427 3.867-4.182 0-2.884-2.117-4.568-5.778-4.568m-2.154 13.957h-1.36v-4.924c2.73 0 3.893 1.173 3.893 2.654 0 1.327-1.124 2.27-2.533 2.27m.086-6.786h-1.446v-4.67h1.559c1.525 0 2.603.662 2.603 2.295 0 1.61-1.237 2.375-2.716 2.375m-28.033-7.171l-3.857 6.296h-.163v-6.296h-4.705v16.457h6.572c4.663 0 6.838-1.678 6.838-4.713 0-2.475-1.563-3.98-3.697-4.738l4.442-7.006zm-2.66 13.957h-1.36v-5.569c2.48 0 3.892.976 3.892 2.916 0 1.607-1.258 2.653-2.532 2.653"/><path d="M444.824 649.555l-.98 2.985h-5.473l-.96-2.985h-3.587l5.986 16.457h4.793l5.448-16.457zm-3.662 11.915l-1.942-6.098h3.706zm34.735-11.915l-.979 2.985h-5.473l-.959-2.985h-3.588l5.987 16.457h4.792l5.449-16.457zm-3.66 11.915l-1.941-6.098H474zm22.04-11.915l-8.962 9.014v-9.014h-3.184v16.457h2.816l9.2-9.344v9.344h3.27v-16.457zm-112.082 6.89v-6.89h-4.704v16.457h12.13l-1.077-2.96h-6.35v-3.698h5.876v-2.91zm19.86-6.89h-11.054v16.457h12.13l-1.076-2.96h-6.349v-3.698h5.876v-2.91h-5.876v-3.93h7.425z"/></g></svg>